<?xml version="1.0" standalone="no"?>
<!DOCTYPE svg PUBLIC "-//W3C//DTD SVG 20010904//EN"
 "http://www.w3.org/TR/2001/REC-SVG-20010904/DTD/svg10.dtd">
<svg version="1.0" xmlns="http://www.w3.org/2000/svg"
 width="960.000000pt" height="887.000000pt" viewBox="0 0 960.000000 887.000000"
 preserveAspectRatio="xMidYMid meet">

<g transform="translate(0.000000,887.000000) scale(0.100000,-0.100000)"
fill="#000000" stroke="none">
<path d="M5433 7639 c-6 -6 -9 -17 -7 -23 7 -19 -14 -66 -30 -66 -8 0 -16 -3
-18 -7 -3 -7 -87 -53 -238 -130 -30 -15 -57 -30 -60 -33 -3 -3 -27 -17 -55
-31 -58 -30 -189 -100 -290 -155 -38 -20 -108 -57 -155 -82 -47 -24 -110 -57
-140 -74 -30 -16 -88 -47 -128 -69 -61 -33 -71 -36 -62 -19 6 12 10 26 7 33
-5 17 -44 -106 -56 -178 -10 -62 -15 -187 -12 -335 l1 -85 20 30 c12 17 30 50
41 75 103 223 129 266 198 333 68 66 143 110 209 123 50 10 52 14 -99 -184
-47 -61 -77 -118 -144 -272 -53 -125 -92 -252 -180 -596 l-84 -329 27 -22 c37
-31 67 -36 125 -19 90 26 84 15 153 322 75 340 78 349 136 364 85 22 352 112
413 139 169 77 275 179 325 314 52 141 75 300 90 637 6 129 15 261 19 293 4
31 7 57 6 57 0 0 -6 -5 -12 -11z"/>
<path d="M5324 7564 c-18 -14 -18 -15 4 -4 12 6 22 13 22 15 0 8 -5 6 -26 -11z"/>
<path d="M5200 7505 c-14 -8 -20 -14 -15 -14 6 0 21 6 35 14 14 8 21 14 15 14
-5 0 -21 -6 -35 -14z"/>
<path d="M5520 6368 c-85 -8 -217 -46 -304 -89 -179 -89 -330 -247 -436 -459
-91 -183 -215 -325 -356 -408 -113 -68 -125 -70 -184 -32 -28 18 -85 59 -128
92 -100 78 -141 98 -197 98 -44 0 -49 -3 -153 -101 -159 -150 -206 -168 -272
-101 -57 57 -83 137 -84 252 0 138 42 260 128 373 66 86 84 141 66 206 -24 89
-93 102 -196 36 -178 -114 -318 -326 -369 -558 -25 -111 -17 -406 14 -562 82
-407 300 -793 621 -1098 272 -258 587 -446 983 -586 l87 -30 133 45 c256 88
575 263 782 429 94 75 273 252 347 344 305 378 468 831 468 1305 0 108 -5 161
-19 218 -88 342 -425 614 -781 630 -41 2 -109 0 -150 -4z"/>
<path d="M3819 6029 c-105 -62 -128 -217 -45 -298 68 -66 161 -47 213 44 27
47 31 150 9 193 -39 74 -113 100 -177 61z"/>
<path d="M6805 3821 c-36 -15 -54 -45 -104 -176 -27 -72 -67 -179 -90 -238
-44 -114 -48 -153 -18 -171 28 -17 85 54 205 253 146 242 153 262 103 312 -30
29 -58 35 -96 20z"/>
<path d="M3085 3651 c-200 -72 -362 -213 -517 -451 -214 -328 -338 -715 -338
-1056 0 -388 164 -674 387 -674 106 0 163 28 269 134 108 109 191 229 294 428
l76 147 27 -117 c58 -248 177 -439 322 -515 60 -32 198 -30 280 4 91 38 170
95 271 194 82 81 211 242 244 304 12 23 13 23 44 -35 44 -82 83 -129 141 -169
88 -60 190 -77 294 -48 l24 6 -6 -112 c-4 -62 -9 -116 -12 -121 -3 -5 -59 -37
-125 -71 -121 -62 -195 -121 -225 -178 -35 -68 -40 -173 -20 -389 l19 -202 35
34 c40 37 81 64 186 121 123 66 175 96 175 101 0 3 -10 -1 -22 -7 -13 -7 18
26 67 73 52 49 93 81 97 75 10 -17 38 92 38 149 0 77 -21 207 -32 196 -5 -5
-18 -42 -29 -83 -12 -41 -30 -90 -40 -110 -28 -56 -139 -146 -139 -113 0 3 15
33 34 67 60 108 96 268 111 487 4 52 8 102 11 111 3 9 35 34 72 55 40 24 106
77 164 136 l97 96 25 -43 c51 -86 124 -123 202 -104 76 19 164 114 242 258
l40 74 12 -44 c34 -127 119 -237 201 -259 117 -32 265 70 398 271 l58 88 36
-73 c101 -204 263 -240 435 -97 98 81 235 279 323 466 48 102 52 162 14 200
-28 29 -36 30 -75 10 -23 -12 -45 -47 -104 -170 -111 -230 -228 -385 -292
-385 -49 0 -86 84 -105 242 -13 110 -10 182 16 353 20 127 17 163 -15 195 -35
35 -140 20 -193 -28 -53 -48 -87 -176 -88 -334 0 -101 -1 -104 -44 -188 -64
-122 -155 -260 -212 -319 -38 -40 -56 -51 -80 -51 -27 0 -34 6 -51 43 -28 59
-50 174 -58 294 -6 91 1 158 32 310 14 69 -94 122 -153 75 -14 -12 -29 -48
-48 -117 -75 -287 -154 -473 -235 -556 -31 -33 -55 -50 -67 -47 -30 5 -54 69
-60 165 -17 269 127 515 327 558 133 28 180 129 94 204 -29 26 -43 31 -85 31
-199 0 -430 -291 -501 -630 -11 -52 -24 -108 -28 -124 -33 -107 -191 -282
-305 -337 -61 -30 -79 -34 -146 -34 -92 0 -112 14 -153 106 -69 153 -75 380
-14 543 38 102 168 215 250 216 33 0 81 -39 109 -90 52 -91 169 -63 169 40 0
19 -11 58 -24 85 -91 193 -350 215 -563 47 -81 -64 -145 -162 -268 -408 -150
-302 -262 -473 -404 -615 -89 -89 -114 -108 -153 -119 -75 -20 -103 -3 -144
85 -65 141 -100 308 -124 588 -13 159 6 344 59 578 18 79 -13 142 -82 168 -59
23 -143 6 -178 -35 -10 -12 -25 -71 -38 -151 -77 -468 -254 -936 -424 -1119
-66 -71 -124 -104 -185 -104 -36 0 -50 7 -87 41 -25 23 -57 67 -72 98 -28 56
-28 58 -28 256 0 173 3 214 23 304 54 239 149 428 284 563 104 104 209 159
352 184 123 22 211 86 238 176 23 76 -23 161 -107 199 -52 24 -153 24 -220 0z"/>
</g>
</svg>
